<?xml version="1.0" standalone="no"?>
<!DOCTYPE svg PUBLIC "-//W3C//DTD SVG 20010904//EN"
 "http://www.w3.org/TR/2001/REC-SVG-20010904/DTD/svg10.dtd">
<svg version="1.0" xmlns="http://www.w3.org/2000/svg"
 width="240.000000pt" height="240.000000pt" viewBox="0 0 240.000000 240.000000"
 preserveAspectRatio="xMidYMid meet">
<metadata>
Created by potrace 1.11, written by Peter Selinger 2001-2013
</metadata>
<g transform="translate(0.000000,240.000000) scale(0.100000,-0.100000)"
fill="#000000" stroke="none">
<path d="M620 1809 c-305 -186 -565 -348 -577 -359 -14 -13 -23 -34 -23 -52 0
-36 40 -78 74 -78 16 0 227 123 551 321 354 216 531 319 543 314 9 -3 241
-144 515 -312 275 -168 512 -310 527 -316 33 -13 74 9 92 48 24 53 3 72 -247
224 l-235 143 0 144 0 144 -140 0 -140 0 0 -55 c0 -30 -3 -55 -6 -55 -4 0 -81
46 -173 102 -91 56 -175 107 -186 113 -18 11 -83 -26 -575 -326z"/>
<path d="M778 1641 l-398 -236 0 -572 0 -573 435 0 435 0 0 355 c0 298 2 362
15 393 36 85 105 125 215 126 104 1 140 -9 190 -51 79 -68 80 -70 80 -470 l0
-353 120 0 120 0 0 574 0 574 -375 216 c-206 119 -389 225 -407 235 l-33 18
-397 -236z m126 -545 c55 -42 66 -76 66 -211 l0 -115 -200 0 -200 0 0 124 c0
111 2 126 23 157 12 18 38 44 57 57 32 21 44 23 126 20 82 -3 94 -6 128 -32z"/>
<path d="M2 1100 c0 -19 2 -27 5 -17 2 9 2 25 0 35 -3 9 -5 1 -5 -18z"/>
</g>
</svg>
